<svg width="47.99999999999999" height="47.99999999999999" xmlns="http://www.w3.org/2000/svg">

 <g>
  <title>background</title>
  <rect fill="none" id="canvas_background" height="402" width="582" y="-1" x="-1"/>
 </g>
 <g>
  <title>Layer 1</title>
  <ellipse ry="22.354828" rx="22.354828" id="svg_3" cy="24.000001" cx="24" stroke-width="NaN" stroke="#f8b195" fill="none"/>
  <path stroke="null" fill="#f8b195" id="svg_1" d="m24,26.350232c1.555853,0 2.810877,-1.264425 2.810877,-2.820278l0.009401,-5.640556c0,-1.560554 -1.259724,-2.820278 -2.820278,-2.820278c-1.555853,0 -2.820278,1.259724 -2.820278,2.820278l0,5.640556c0,1.555853 1.264425,2.820278 2.820278,2.820278zm4.982491,-2.820278c0,2.820278 -2.383135,4.794473 -4.982491,4.794473c-2.594656,0 -4.982491,-1.974195 -4.982491,-4.794473l-1.598158,0c0,3.210417 2.557052,5.861478 5.640556,6.317423l0,3.083504l1.880185,0l0,-3.083504c3.083504,-0.455945 5.640556,-3.107006 5.640556,-6.317423l-1.598158,0z"/>
 </g>
</svg>